<?xml version="1.0" standalone="no"?>
<!DOCTYPE svg PUBLIC "-//W3C//DTD SVG 20010904//EN"
 "http://www.w3.org/TR/2001/REC-SVG-20010904/DTD/svg10.dtd">
<svg version="1.0" xmlns="http://www.w3.org/2000/svg"
 width="512.000000pt" height="512.000000pt" viewBox="0 0 512.000000 512.000000"
 preserveAspectRatio="xMidYMid meet">

<g transform="translate(0.000000,512.000000) scale(0.100000,-0.100000)"
fill="#000000" stroke="none">
<path d="M469 5106 c-86 -30 -139 -79 -187 -170 l-27 -51 0 -365 c0 -361 0
-365 23 -412 53 -108 148 -169 274 -176 l78 -5 0 -168 0 -169 -103 0 c-59 0
-127 -6 -161 -15 -172 -45 -308 -167 -350 -316 -15 -50 -16 -199 -14 -1480 l3
-1424 34 -70 c42 -85 141 -188 222 -228 119 -59 60 -57 1343 -57 l1179 0 -41
44 c-107 116 -173 228 -221 374 -92 277 -49 585 116 835 33 50 172 197 461
488 l413 416 -3 549 -3 549 -32 68 c-59 124 -171 216 -308 252 -37 9 -103 15
-177 15 l-118 0 0 169 0 169 88 4 c137 6 228 63 284 176 23 47 23 51 23 412
l0 365 -27 52 c-39 73 -78 114 -140 149 l-53 29 -232 3 -233 3 0 -445 0 -446
-150 0 -150 0 0 445 0 445 -185 0 -185 0 0 -445 0 -445 -150 0 -150 0 0 445 0
445 -195 0 -195 0 0 -445 0 -445 -150 0 -150 0 0 445 0 445 -207 0 c-144 -1
-219 -5 -244 -14z m1370 -2535 c14 -9 34 -30 45 -45 20 -26 21 -43 24 -306 l3
-279 284 -3 283 -3 27 -25 c96 -90 61 -230 -65 -259 -25 -6 -154 -11 -287 -11
l-242 0 -3 -274 c-3 -259 -4 -276 -24 -302 -37 -50 -70 -68 -124 -68 -54 0
-87 18 -124 68 -20 26 -21 43 -24 301 l-3 274 -267 3 c-246 3 -270 5 -301 23
-49 29 -73 67 -78 122 -5 57 19 102 69 133 31 19 51 20 306 20 l272 0 0 265
c0 285 3 308 52 353 48 44 127 50 177 13z"/>
<path d="M4293 2340 c-77 -14 -180 -56 -248 -100 -33 -22 -153 -133 -267 -247
l-208 -208 493 -493 493 -492 225 227 c214 216 229 233 267 313 94 196 94 394
0 589 -33 69 -58 103 -139 186 -111 114 -185 163 -303 201 -90 28 -229 39
-313 24z"/>
<path d="M3133 1348 c-241 -242 -284 -299 -328 -429 -39 -115 -41 -276 -6
-389 39 -128 76 -185 196 -306 95 -96 121 -117 195 -152 196 -94 393 -94 590
0 81 38 97 52 325 279 l240 239 -490 490 c-269 269 -492 490 -495 490 -3 0
-105 -100 -227 -222z"/>
</g>
</svg>
