<?xml version="1.0" standalone="no"?>
<!DOCTYPE svg PUBLIC "-//W3C//DTD SVG 20010904//EN"
 "http://www.w3.org/TR/2001/REC-SVG-20010904/DTD/svg10.dtd">
<svg version="1.0" xmlns="http://www.w3.org/2000/svg"
 width="506.000000pt" height="493.000000pt" viewBox="0 0 506.000000 493.000000"
 preserveAspectRatio="xMidYMid meet">

<g transform="translate(0.000000,493.000000) scale(0.100000,-0.100000)"
fill="#000000" stroke="none">
<path d="M2300 4524 c-245 -47 -397 -108 -585 -235 -127 -85 -211 -164 -329
-310 -110 -136 -212 -351 -262 -554 -25 -102 -27 -126 -28 -325 -1 -193 2
-225 23 -310 31 -125 94 -299 139 -380 53 -96 169 -270 175 -263 3 3 46 -35
94 -84 94 -94 199 -177 268 -212 l43 -21 1 -203 c1 -162 -2 -213 -15 -257 -40
-134 30 -364 293 -955 l90 -200 61 -3 61 -3 -35 78 c-20 43 -82 182 -139 308
-57 127 -128 285 -159 353 -31 68 -56 126 -56 130 0 4 14 -10 31 -30 63 -78
332 -258 383 -258 10 0 16 9 16 24 0 20 -10 29 -55 50 -135 62 -337 217 -394
303 -52 78 -22 76 62 -3 40 -39 102 -91 137 -115 84 -59 200 -123 200 -110 0
5 -4 12 -9 15 -5 3 -12 18 -16 33 -3 15 -10 30 -15 33 -5 3 -5 12 0 19 6 11
25 3 89 -37 44 -29 85 -52 91 -52 6 0 15 -11 20 -25 12 -33 70 -37 70 -5 0 13
13 26 38 39 134 68 391 308 477 443 26 43 51 76 53 73 11 -11 -72 -128 -182
-253 -66 -76 -105 -124 -88 -107 29 26 34 28 48 13 14 -14 11 -20 -27 -64 -23
-26 -37 -50 -31 -52 5 -1 33 11 61 28 29 16 54 30 57 30 12 0 102 67 147 108
86 81 41 -21 -50 -114 -76 -77 -165 -143 -269 -200 -78 -42 -99 -66 -78 -86
19 -19 248 124 338 210 47 46 57 52 51 32 -12 -39 -186 -459 -264 -638 -39
-88 -71 -163 -71 -166 0 -3 26 -6 59 -6 l58 0 21 53 c11 28 51 124 87 212 138
331 210 554 245 747 17 100 17 105 -1 163 -15 50 -19 93 -19 248 0 115 -4 187
-10 187 -5 0 -38 -13 -72 -29 -134 -61 -410 -131 -465 -118 -27 6 -2 13 97 26
118 15 187 34 315 87 61 26 126 52 146 59 86 33 277 180 372 288 59 68 140
185 176 255 l21 42 -22 30 c-25 34 -17 51 14 31 26 -16 29 -12 68 79 69 164
107 404 97 621 -7 149 -25 244 -73 381 -76 218 -179 383 -339 544 -200 201
-441 333 -735 399 -104 24 -398 29 -500 9z m361 -294 c367 -42 727 -288 887
-605 33 -67 92 -236 92 -266 0 -14 -7 -19 -25 -19 -20 0 -25 5 -25 24 0 13 -7
29 -15 36 -13 11 -15 7 -15 -24 0 -20 -4 -36 -10 -36 -5 0 -10 24 -10 53 0 68
-9 99 -26 93 -7 -3 -11 0 -9 7 6 15 -11 44 -20 35 -4 -3 -10 -28 -15 -55 -4
-27 -8 -37 -9 -21 -1 21 -5 25 -20 21 -13 -3 -22 -17 -26 -44 -8 -45 -22 -60
-22 -23 0 40 -20 52 -33 20 -9 -24 -13 -26 -26 -15 -13 10 -17 10 -25 -2 -5
-8 -9 -24 -9 -35 0 -32 -28 -39 -36 -9 -4 18 -13 25 -30 25 -13 0 -24 -6 -25
-12 0 -10 -2 -10 -6 0 -8 21 -33 13 -34 -10 -1 -14 -5 -7 -10 17 -5 21 -15 43
-22 47 -23 15 -37 8 -37 -17 0 -21 -5 -25 -30 -25 -30 0 -30 0 -30 56 0 52 -1
55 -22 52 -13 -2 -23 -10 -24 -18 -1 -8 -2 -42 -4 -75 l-2 -60 -9 43 c-4 23
-11 47 -14 52 -8 13 -27 2 -22 -13 2 -7 -2 -17 -9 -24 -7 -7 -10 -21 -7 -32 3
-10 0 -22 -5 -25 -10 -6 -15 10 -27 92 -8 52 -25 55 -25 5 0 -85 -23 -150 -32
-90 -2 17 -11 23 -36 25 -27 3 -34 -1 -42 -22 -7 -18 -17 -26 -34 -26 -24 0
-25 4 -28 62 -2 38 -8 63 -15 66 -10 3 -13 -13 -13 -57 0 -54 -2 -61 -20 -61
-17 0 -20 7 -20 46 0 38 -3 45 -17 42 -13 -2 -19 -15 -21 -46 -4 -54 -20 -54
-24 1 -2 29 -8 42 -18 42 -10 0 -16 -13 -18 -42 -3 -44 -17 -54 -40 -31 -8 8
-12 8 -12 1 0 -6 -20 -11 -45 -11 -43 -1 -45 0 -45 28 0 16 -5 32 -11 36 -7 4
-9 25 -5 58 6 49 -5 88 -20 73 -4 -4 -10 -34 -12 -67 -7 -96 -22 -69 -22 39 0
69 -4 101 -12 103 -7 3 -13 28 -15 61 -1 31 -8 67 -14 79 -7 13 -14 34 -15 48
-2 14 -8 48 -13 75 -5 28 -10 76 -10 107 -1 93 -18 75 -25 -27 -4 -53 -14
-119 -22 -148 -9 -28 -17 -62 -18 -74 -1 -13 -6 -26 -9 -30 -4 -3 -7 -71 -7
-150 0 -120 -2 -143 -15 -143 -12 0 -15 15 -15 76 0 66 -3 78 -22 95 -13 10
-26 18 -29 19 -4 0 -12 -29 -19 -65 -14 -74 -30 -86 -30 -22 0 23 -3 52 -6 64
-7 27 -35 39 -49 20 -5 -7 -16 -12 -23 -9 -11 3 -13 -15 -10 -87 5 -135 -8
-110 -16 32 -4 67 -9 136 -12 152 -18 118 -37 134 -55 45 -8 -40 -15 -57 -20
-48 -8 12 -13 -9 -12 -49 1 -21 -14 -15 -20 7 -3 11 -10 20 -15 20 -12 0 -38
-38 -45 -65 -2 -11 -5 3 -6 30 -3 73 -8 115 -14 122 -10 10 -19 -45 -15 -91 2
-37 0 -46 -15 -50 -16 -4 -17 -13 -13 -80 3 -45 1 -76 -5 -76 -5 0 -9 -7 -9
-15 0 -12 -3 -12 -20 2 -13 11 -16 21 -10 27 6 6 10 15 10 20 -1 22 -30 -29
-31 -53 -1 -14 -6 12 -10 59 -5 46 -14 89 -19 94 -7 7 -10 3 -10 -10 0 -11 -7
-29 -15 -40 -8 -11 -14 -42 -15 -75 0 -38 -5 -61 -15 -69 -8 -7 -13 -16 -10
-20 3 -5 1 -11 -4 -14 -5 -4 -12 7 -16 23 -8 36 -32 60 -39 40 -3 -8 -6 -27
-8 -44 -2 -22 -9 -31 -25 -33 -28 -4 -28 -4 -2 88 99 358 424 669 799 766 164
42 280 51 431 34z m-424 -586 c-9 -9 -28 6 -21 18 4 6 10 6 17 -1 6 -6 8 -13
4 -17z m863 -283 c0 -6 -4 -13 -10 -16 -5 -3 -10 1 -10 9 0 9 5 16 10 16 6 0
10 -4 10 -9z m-1390 -127 c11 -11 14 -38 14 -105 -1 -118 -3 -119 -141 -119
-83 0 -103 3 -103 14 0 8 5 18 10 21 6 3 10 44 10 91 0 49 -4 84 -10 84 -5 0
-10 7 -10 14 0 27 202 26 230 0z m150 1 c0 -7 -5 -15 -11 -17 -16 -5 -16 -171
0 -176 6 -2 11 -10 11 -18 0 -10 -14 -14 -50 -14 -36 0 -50 4 -50 14 0 8 7 16
15 20 12 4 15 24 15 86 0 62 -3 82 -15 86 -25 10 -17 32 13 36 41 5 72 -3 72
-17z m205 15 c7 0 27 -40 46 -92 18 -50 41 -100 51 -110 29 -29 21 -38 -32
-38 -37 0 -50 4 -50 14 0 8 5 18 10 21 7 4 7 13 0 26 -15 27 -105 28 -119 0
-8 -14 -7 -22 4 -31 23 -19 8 -30 -41 -30 -46 0 -55 11 -31 39 8 9 29 57 48
108 34 92 48 107 87 97 8 -2 19 -4 27 -4z m373 -12 c6 -6 12 -19 12 -29 0 -23
-45 -27 -54 -4 -4 11 -22 15 -70 15 -74 0 -76 -3 -76 -86 0 -81 10 -94 73 -94
65 0 80 9 75 46 -3 26 -7 29 -40 32 -25 2 -38 8 -38 18 0 11 15 14 65 14 l65
0 0 -56 c0 -75 -11 -83 -120 -84 -124 0 -130 6 -130 125 0 64 4 96 13 102 32
20 199 21 225 1z m134 8 c8 -8 32 -41 54 -75 21 -33 42 -61 47 -61 4 0 7 25 7
55 0 30 -4 55 -10 55 -5 0 -10 7 -10 15 0 15 20 19 70 15 34 -3 36 -7 17 -28
-13 -15 -17 -39 -17 -115 0 -96 0 -97 -24 -97 -19 0 -37 18 -83 83 l-58 82 -3
-60 c-2 -45 1 -62 12 -71 30 -21 17 -34 -34 -34 -38 0 -50 4 -50 15 0 8 5 15
10 15 15 0 13 177 -2 182 -6 2 -9 12 -5 21 8 21 60 23 79 3z m431 -8 c14 -7
17 -23 17 -100 0 -123 -5 -128 -123 -128 -123 0 -127 4 -127 126 0 63 4 95 13
101 32 20 182 21 220 1z m275 -1 c6 -5 12 -18 12 -28 0 -24 -45 -26 -54 -4 -5
13 -20 15 -73 13 l-68 -3 0 -30 0 -30 75 -3 c104 -3 120 -13 120 -73 0 -62
-13 -69 -124 -69 -74 0 -89 3 -107 21 -26 26 -22 63 9 67 16 3 22 -2 22 -16 0
-32 24 -43 87 -40 l58 3 0 35 0 35 -80 3 c-95 4 -121 22 -111 81 3 18 8 36 11
39 20 20 197 19 223 -1z m285 1 c22 -11 22 -47 0 -55 -11 -4 -22 1 -31 15 -12
18 -24 22 -68 22 -58 0 -69 -9 -60 -46 6 -21 12 -24 56 -24 38 0 50 -4 50 -15
0 -11 -11 -15 -39 -15 -52 0 -71 -8 -71 -30 0 -40 11 -50 55 -50 53 0 75 8 75
26 0 19 39 18 47 -1 3 -9 -3 -25 -12 -35 -16 -18 -31 -20 -127 -20 -89 0 -108
3 -108 15 0 8 5 15 10 15 6 0 10 37 10 90 0 53 -4 90 -10 90 -5 0 -10 7 -10
14 0 11 14 16 48 18 65 4 163 -3 185 -14z m111 -263 c-5 -13 -141 -15 -1140
-15 -690 0 -1134 4 -1134 9 0 5 -8 12 -17 14 -10 3 503 5 1139 6 1025 1 1157
-1 1152 -14z m-39 -180 c-10 -41 -20 -73 -22 -71 -3 2 3 39 12 81 10 42 20 74
22 71 3 -3 -2 -39 -12 -81z m-515 -316 c0 -27 -9 -34 -35 -29 -5 1 -22 2 -37
2 -27 1 -33 8 -28 38 3 22 14 26 60 22 37 -4 40 -7 40 -33z m527 24 c-13 -3
-18 -12 -15 -27 4 -20 0 -23 -33 -25 -29 -1 -40 3 -48 18 -20 36 -13 41 52 40
34 -1 54 -3 44 -6z m73 -14 c0 6 5 11 10 11 6 0 5 -8 -2 -19 -6 -11 -20 -19
-30 -18 -21 1 -20 0 -12 21 5 13 9 14 20 5 10 -8 14 -8 14 0z m48 -57 c-11
-26 -94 -152 -101 -152 -4 0 13 30 38 67 25 37 45 73 45 80 0 7 5 13 11 13 6
0 9 -4 7 -8z m-242 -29 c-10 -10 -19 5 -10 18 6 11 8 11 12 0 2 -7 1 -15 -2
-18z m-35 -32 c5 8 9 10 9 4 -1 -17 -29 -49 -37 -40 -5 4 -3 10 4 12 7 2 11
10 9 16 -1 7 -1 8 2 3 2 -4 8 -2 13 5z m-44 -46 c0 -17 -13 -20 -21 -6 -4 5 0
12 6 14 7 3 13 6 14 6 0 1 1 -6 1 -14z m-1693 -124 c32 -35 155 -112 251 -157
177 -83 352 -119 547 -112 88 2 107 0 105 -11 -3 -22 20 -24 26 -1 3 11 13 20
24 21 31 1 57 6 76 14 11 5 17 3 17 -6 0 -11 3 -11 11 1 8 12 9 9 5 -10 -3
-14 -3 -19 0 -12 3 6 10 9 16 6 6 -4 8 1 4 14 -10 30 32 37 61 10 13 -12 23
-16 23 -10 0 7 -5 12 -11 12 -5 0 -7 5 -3 12 4 7 3 8 -4 4 -7 -4 -12 -2 -12 3
0 6 7 11 15 11 8 0 15 -5 15 -11 0 -5 5 -7 10 -4 6 3 10 1 10 -6 0 -9 4 -9 15
1 8 6 19 9 25 5 5 -3 10 -1 10 4 0 6 7 11 15 11 28 0 15 -16 -22 -30 -21 -7
-38 -11 -39 -9 0 2 -7 -1 -15 -7 -26 -20 -52 -26 -46 -10 7 18 -18 42 -28 26
-3 -5 -1 -10 5 -10 7 0 8 -6 1 -19 -12 -22 -61 -26 -61 -5 0 8 -5 14 -11 14
-7 0 -9 -9 -5 -23 5 -22 1 -25 -47 -36 -142 -33 -371 -23 -548 25 -160 43
-359 141 -351 174 2 8 -3 10 -13 6 -9 -3 -13 -2 -10 4 3 6 1 10 -5 10 -6 0 -8
5 -4 12 4 6 3 8 -4 4 -6 -3 -13 -2 -17 4 -3 5 -11 10 -16 10 -6 0 -7 -5 -3
-12 4 -7 3 -8 -4 -4 -6 4 -9 13 -5 21 5 14 -7 20 -30 16 -5 -1 -5 4 -1 10 5 9
2 10 -9 6 -11 -4 -14 -2 -11 7 3 8 0 17 -5 21 -6 3 -9 11 -6 16 10 15 41 10
59 -10z m1496 -86 c0 -8 -2 -15 -4 -15 -2 0 -6 7 -10 15 -3 8 -1 15 4 15 6 0
10 -7 10 -15z m-83 -31 c-9 -9 -28 6 -21 18 4 6 10 6 17 -1 6 -6 8 -13 4 -17z
m23 -18 c0 -3 -4 -8 -10 -11 -5 -3 -10 -1 -10 4 0 6 5 11 10 11 6 0 10 -2 10
-4z m-110 -10 c0 -2 -7 -7 -16 -10 -8 -3 -12 -2 -9 4 6 10 25 14 25 6z m65
-23 c-27 -19 -38 -16 -17 5 9 11 21 17 26 14 5 -3 1 -11 -9 -19z m-131 -17
c-3 -8 -12 -12 -21 -9 -12 5 -12 7 -1 14 20 13 28 11 22 -5z m-44 -10 c0 -2
-7 -7 -16 -10 -8 -3 -12 -2 -9 4 6 10 25 14 25 6z m-950 -243 l25 -14 -25 7
c-14 4 -36 13 -50 21 l-25 14 25 -7 c14 -4 36 -13 50 -21z m902 -296 c-6 -7
-16 -25 -22 -41 -9 -24 -8 -27 5 -22 13 5 15 1 9 -17 -24 -78 -117 -213 -186
-269 -65 -52 -181 -128 -197 -128 -21 0 -113 74 -159 128 -49 59 -122 172
-122 190 0 8 23 -7 52 -33 44 -39 152 -105 174 -105 3 0 -8 16 -25 36 -33 37
-117 194 -103 194 4 0 45 -5 90 -10 142 -18 344 15 459 75 34 18 38 19 25 2z
m-893 -91 c74 -97 204 -227 298 -298 66 -50 69 -60 6 -17 -112 76 -421 409
-379 409 2 0 35 -42 75 -94z m900 -208 l-12 -23 23 20 24 20 -23 -33 c-21 -30
-25 -32 -39 -18 -14 14 -13 17 9 35 31 26 32 26 18 -1z m-662 -120 c-3 -8 -6
-5 -6 6 -1 11 2 17 5 13 3 -3 4 -12 1 -19z"/>
<path d="M1830 3850 c0 -5 5 -10 10 -10 6 0 10 5 10 10 0 6 -4 10 -10 10 -5 0
-10 -4 -10 -10z"/>
<path d="M2426 3401 c-3 -5 1 -14 9 -21 12 -10 15 -10 15 3 0 19 -16 31 -24
18z"/>
<path d="M1552 3133 l3 -88 55 0 55 0 7 40 c4 22 4 61 1 88 l-6 47 -59 0 -59
0 3 -87z"/>
<path d="M2016 3188 c-23 -55 -21 -68 13 -68 17 0 32 3 34 8 3 4 -3 27 -13 52
l-18 45 -16 -37z"/>
<path d="M2827 3214 c-4 -4 -7 -42 -7 -85 0 -90 3 -93 96 -87 l49 3 0 85 0 85
-65 3 c-36 2 -69 0 -73 -4z"/>
<path d="M1629 1337 c-52 -32 -89 -63 -89 -76 0 -6 2 -11 5 -11 10 0 125 93
125 102 0 10 3 11 -41 -15z"/>
<path d="M3411 1342 c1 -16 92 -73 101 -64 6 6 -1 17 -19 29 -36 24 -83 45
-82 35z"/>
<path d="M1422 1277 c-17 -12 -57 -50 -88 -84 -43 -49 -73 -71 -132 -99 -129
-61 -321 -175 -397 -235 -87 -69 -216 -198 -257 -257 l-29 -43 28 -33 c15 -19
47 -46 70 -61 23 -15 50 -36 59 -46 9 -10 23 -19 30 -19 7 0 14 -4 16 -9 3 -8
59 -45 123 -81 48 -27 183 -70 220 -70 17 0 36 -5 43 -12 8 -8 128 -13 413
-16 341 -4 401 -3 394 9 -4 8 -18 28 -30 44 -138 192 -358 646 -427 880 -21
71 -21 76 -5 109 20 44 10 52 -31 23z"/>
<path d="M3597 1243 c13 -133 -226 -675 -430 -977 l-40 -59 427 5 c308 3 430
8 438 16 7 7 23 12 37 13 85 1 311 98 351 150 3 3 10 8 16 10 38 14 170 133
188 170 14 28 13 31 -17 62 -139 145 -304 256 -593 398 -202 100 -211 105
-284 181 -42 43 -80 78 -86 78 -7 0 -9 -18 -7 -47z"/>
<path d="M3499 1230 c-25 -38 -32 -77 -15 -83 17 -7 39 50 34 85 l-3 23 -16
-25z"/>
<path d="M1517 1233 c-2 -5 -2 -14 -1 -20 1 -7 2 -22 3 -33 1 -24 28 -37 42
-23 7 7 7 17 1 29 -6 11 -13 27 -16 37 -5 17 -22 23 -29 10z"/>
<path d="M1548 1124 c-8 -7 9 -65 22 -78 7 -7 14 -6 21 1 9 9 8 21 -5 47 -16
35 -26 42 -38 30z"/>
<path d="M3457 1109 c-24 -38 -25 -64 -2 -64 13 0 22 10 29 33 12 44 -6 64
-27 31z"/>
<path d="M1586 1011 c-10 -16 18 -71 36 -71 21 0 22 10 7 44 -12 26 -35 41
-43 27z"/>
<path d="M3410 991 c-14 -28 -13 -61 3 -61 14 0 37 40 37 65 0 22 -28 18 -40
-4z"/>
<path d="M1632 908 c-13 -17 11 -78 31 -78 24 0 25 10 9 51 -16 42 -23 46 -40
27z"/>
<path d="M3364 875 c-17 -25 -13 -55 6 -55 9 0 40 58 40 75 0 15 -32 2 -46
-20z"/>
<path d="M2470 846 c0 -34 -1 -35 -42 -38 l-43 -3 -3 -77 -3 -78 46 0 45 0 0
-55 0 -55 65 0 c55 0 65 3 66 18 2 20 5 50 7 74 2 13 10 15 42 11 l41 -6 -3
89 -3 89 -40 0 c-38 0 -40 2 -43 33 l-3 32 -65 0 -64 0 0 -34z"/>
<path d="M1670 793 c2 -24 38 -78 54 -81 16 -3 18 0 12 25 -4 15 -15 36 -23
46 -16 17 -43 24 -43 10z"/>
<path d="M3321 774 c-11 -15 -21 -35 -21 -45 0 -32 30 -21 46 17 20 48 4 65
-25 28z"/>
<path d="M1745 644 c8 -20 15 -38 15 -40 0 -2 9 -4 20 -4 23 0 25 12 9 43 -14
25 -28 37 -47 37 -9 0 -9 -8 3 -36z"/>
<path d="M3250 648 c-18 -31 -14 -47 12 -48 9 0 38 54 38 70 0 22 -31 8 -50
-22z"/>
<path d="M1806 573 c-13 -13 -5 -51 13 -67 20 -18 41 -15 41 6 0 15 -47 68
-54 61z"/>
<path d="M3198 556 c-16 -36 5 -60 27 -30 8 10 14 25 12 33 -4 25 -26 23 -39
-3z"/>
<path d="M3164 502 c-6 -4 -17 -18 -24 -31 -10 -19 -10 -25 1 -32 21 -13 24
-11 38 15 14 26 3 60 -15 48z"/>
<path d="M1862 454 c4 -33 32 -54 50 -36 9 9 7 17 -12 37 -30 32 -42 32 -38
-1z"/>
<path d="M3093 389 c-20 -30 -21 -59 -2 -59 12 0 50 62 46 74 -7 20 -23 14
-44 -15z"/>
<path d="M1924 376 c-3 -9 3 -30 14 -47 l20 -32 12 23 c11 20 9 26 -14 47 -22
20 -27 21 -32 9z"/>
<path d="M3026 289 c-21 -24 -24 -34 -15 -45 14 -18 36 -2 50 35 16 40 -5 46
-35 10z"/>
<path d="M1984 286 c-7 -19 14 -58 29 -53 17 5 21 35 7 52 -16 19 -29 19 -36
1z"/>
<path d="M2045 220 c-3 -5 1 -10 9 -10 9 0 16 5 16 10 0 6 -4 10 -9 10 -6 0
-13 -4 -16 -10z"/>
</g>
</svg>
